<svg width="16" height="22" viewBox="0 0 16 22" fill="none" xmlns="http://www.w3.org/2000/svg">
<g clip-path="url(#clip0_18_700)">
<path opacity="0.4" d="M14 2.66669H10.6667C11.3739 2.66669 12.0522 2.94764 12.5523 3.44774C13.0524 3.94783 13.3333 4.62611 13.3333 5.33335H2.66667C2.66667 4.62611 2.94762 3.94783 3.44772 3.44774C3.94781 2.94764 4.62609 2.66669 5.33333 2.66669H2C1.46957 2.66669 0.960859 2.8774 0.585786 3.25247C0.210714 3.62755 0 4.13625 0 4.66669L0 19.3334C0 19.8638 0.210714 20.3725 0.585786 20.7476C0.960859 21.1226 1.46957 21.3334 2 21.3334H14C14.5304 21.3334 15.0391 21.1226 15.4142 20.7476C15.7893 20.3725 16 19.8638 16 19.3334V4.66669C16 4.13625 15.7893 3.62755 15.4142 3.25247C15.0391 2.8774 14.5304 2.66669 14 2.66669V2.66669ZM4 17.6667C3.80222 17.6667 3.60888 17.608 3.44443 17.4982C3.27998 17.3883 3.15181 17.2321 3.07612 17.0494C3.00043 16.8666 2.98063 16.6656 3.01921 16.4716C3.0578 16.2776 3.15304 16.0994 3.29289 15.9596C3.43275 15.8197 3.61093 15.7245 3.80491 15.6859C3.99889 15.6473 4.19996 15.6671 4.38268 15.7428C4.56541 15.8185 4.72159 15.9467 4.83147 16.1111C4.94135 16.2756 5 16.4689 5 16.6667C5.00033 16.7981 4.97469 16.9283 4.92455 17.0498C4.87441 17.1712 4.80077 17.2816 4.70784 17.3745C4.61492 17.4675 4.50455 17.5411 4.38307 17.5912C4.2616 17.6414 4.13141 17.667 4 17.6667V17.6667ZM4 13.6667C3.80222 13.6667 3.60888 13.608 3.44443 13.4982C3.27998 13.3883 3.15181 13.2321 3.07612 13.0494C3.00043 12.8666 2.98063 12.6656 3.01921 12.4716C3.0578 12.2776 3.15304 12.0994 3.29289 11.9596C3.43275 11.8197 3.61093 11.7245 3.80491 11.6859C3.99889 11.6473 4.19996 11.6671 4.38268 11.7428C4.56541 11.8185 4.72159 11.9467 4.83147 12.1111C4.94135 12.2756 5 12.4689 5 12.6667C5.00033 12.7981 4.97469 12.9283 4.92455 13.0498C4.87441 13.1712 4.80077 13.2816 4.70784 13.3745C4.61492 13.4675 4.50455 13.5411 4.38307 13.5912C4.2616 13.6414 4.13141 13.667 4 13.6667V13.6667ZM4 9.66669C3.80222 9.66669 3.60888 9.60804 3.44443 9.49816C3.27998 9.38828 3.15181 9.2321 3.07612 9.04937C3.00043 8.86664 2.98063 8.66558 3.01921 8.4716C3.0578 8.27762 3.15304 8.09943 3.29289 7.95958C3.43275 7.81973 3.61093 7.72449 3.80491 7.6859C3.99889 7.64732 4.19996 7.66712 4.38268 7.74281C4.56541 7.8185 4.72159 7.94667 4.83147 8.11112C4.94135 8.27557 5 8.46891 5 8.66669C5.00033 8.7981 4.97469 8.92829 4.92455 9.04976C4.87441 9.17123 4.80077 9.2816 4.70784 9.37453C4.61492 9.46745 4.50455 9.5411 4.38307 9.59124C4.2616 9.64138 4.13141 9.66702 4 9.66669V9.66669ZM13.3333 17C13.3333 17.0884 13.2982 17.1732 13.2357 17.2357C13.1732 17.2982 13.0884 17.3334 13 17.3334H7C6.91159 17.3334 6.82681 17.2982 6.7643 17.2357C6.70179 17.1732 6.66667 17.0884 6.66667 17V16.3334C6.66667 16.2449 6.70179 16.1602 6.7643 16.0977C6.82681 16.0351 6.91159 16 7 16H13C13.0884 16 13.1732 16.0351 13.2357 16.0977C13.2982 16.1602 13.3333 16.2449 13.3333 16.3334V17ZM13.3333 13C13.3333 13.0884 13.2982 13.1732 13.2357 13.2357C13.1732 13.2982 13.0884 13.3334 13 13.3334H7C6.91159 13.3334 6.82681 13.2982 6.7643 13.2357C6.70179 13.1732 6.66667 13.0884 6.66667 13V12.3334C6.66667 12.2449 6.70179 12.1602 6.7643 12.0977C6.82681 12.0351 6.91159 12 7 12H13C13.0884 12 13.1732 12.0351 13.2357 12.0977C13.2982 12.1602 13.3333 12.2449 13.3333 12.3334V13ZM13.3333 9.00002C13.3333 9.08843 13.2982 9.17321 13.2357 9.23572C13.1732 9.29824 13.0884 9.33335 13 9.33335H7C6.91159 9.33335 6.82681 9.29824 6.7643 9.23572C6.70179 9.17321 6.66667 9.08843 6.66667 9.00002V8.33335C6.66667 8.24495 6.70179 8.16016 6.7643 8.09765C6.82681 8.03514 6.91159 8.00002 7 8.00002H13C13.0884 8.00002 13.1732 8.03514 13.2357 8.09765C13.2982 8.16016 13.3333 8.24495 13.3333 8.33335V9.00002Z" fill="#213F7D"/>
<path d="M3.99999 15.6667C3.80221 15.6667 3.60887 15.7253 3.44442 15.8352C3.27997 15.9451 3.1518 16.1013 3.07611 16.284C3.00042 16.4667 2.98062 16.6678 3.0192 16.8618C3.05779 17.0557 3.15303 17.2339 3.29288 17.3738C3.43274 17.5136 3.61092 17.6089 3.8049 17.6475C3.99888 17.686 4.19995 17.6662 4.38267 17.5905C4.5654 17.5149 4.72158 17.3867 4.83146 17.2222C4.94134 17.0578 4.99999 16.8644 4.99999 16.6667C5.00032 16.5353 4.97468 16.4051 4.92454 16.2836C4.8744 16.1621 4.80076 16.0517 4.70783 15.9588C4.61491 15.8659 4.50454 15.7923 4.38306 15.7421C4.26159 15.692 4.1314 15.6663 3.99999 15.6667V15.6667ZM3.99999 11.6667C3.80221 11.6667 3.60887 11.7253 3.44442 11.8352C3.27997 11.9451 3.1518 12.1013 3.07611 12.284C3.00042 12.4667 2.98062 12.6678 3.0192 12.8618C3.05779 13.0557 3.15303 13.2339 3.29288 13.3738C3.43274 13.5136 3.61092 13.6089 3.8049 13.6475C3.99888 13.686 4.19995 13.6662 4.38267 13.5905C4.5654 13.5149 4.72158 13.3867 4.83146 13.2222C4.94134 13.0578 4.99999 12.8644 4.99999 12.6667C5.00032 12.5353 4.97468 12.4051 4.92454 12.2836C4.8744 12.1621 4.80076 12.0517 4.70783 11.9588C4.61491 11.8659 4.50454 11.7923 4.38306 11.7421C4.26159 11.692 4.1314 11.6663 3.99999 11.6667V11.6667ZM3.99999 7.66667C3.80221 7.66667 3.60887 7.72532 3.44442 7.8352C3.27997 7.94508 3.1518 8.10126 3.07611 8.28398C3.00042 8.46671 2.98062 8.66778 3.0192 8.86176C3.05779 9.05574 3.15303 9.23392 3.29288 9.37377C3.43274 9.51363 3.61092 9.60887 3.8049 9.64745C3.99888 9.68604 4.19995 9.66623 4.38267 9.59055C4.5654 9.51486 4.72158 9.38669 4.83146 9.22224C4.94134 9.05779 4.99999 8.86445 4.99999 8.66667C5.00032 8.53525 4.97468 8.40507 4.92454 8.28359C4.8744 8.16212 4.80076 8.05175 4.70783 7.95883C4.61491 7.8659 4.50454 7.79225 4.38306 7.74212C4.26159 7.69198 4.1314 7.66634 3.99999 7.66667V7.66667ZM10.6667 2.66667C10.6667 1.95942 10.3857 1.28115 9.88561 0.781049C9.38551 0.280952 8.70723 0 7.99999 0C7.29275 0 6.61447 0.280952 6.11437 0.781049C5.61427 1.28115 5.33332 1.95942 5.33332 2.66667C4.62608 2.66667 3.9478 2.94762 3.4477 3.44772C2.94761 3.94781 2.66666 4.62609 2.66666 5.33333H13.3333C13.3333 4.62609 13.0524 3.94781 12.5523 3.44772C12.0522 2.94762 11.3739 2.66667 10.6667 2.66667ZM7.99999 3.66667C7.80221 3.66667 7.60887 3.60802 7.44442 3.49814C7.27997 3.38825 7.1518 3.23208 7.07611 3.04935C7.00042 2.86662 6.98062 2.66556 7.0192 2.47158C7.05779 2.2776 7.15303 2.09941 7.29288 1.95956C7.43274 1.81971 7.61092 1.72447 7.8049 1.68588C7.99888 1.6473 8.19995 1.6671 8.38267 1.74279C8.5654 1.81847 8.72158 1.94665 8.83146 2.1111C8.94134 2.27555 8.99999 2.46889 8.99999 2.66667C9.00032 2.79808 8.97468 2.92827 8.92454 3.04974C8.8744 3.17121 8.80076 3.28158 8.70783 3.37451C8.61491 3.46743 8.50454 3.54108 8.38306 3.59122C8.26159 3.64136 8.1314 3.667 7.99999 3.66667V3.66667Z" fill="#213F7D"/>
</g>
<defs>
<clipPath id="clip0_18_700">
<rect width="16" height="21.3333" fill="white"/>
</clipPath>
</defs>
</svg>
