<svg width="16" height="16" viewBox="0 0 16 16" fill="none" xmlns="http://www.w3.org/2000/svg">
<g clip-path="url(#clip0_18_739)">
<path opacity="0.4" d="M4.76286 11.8763C4.27076 11.7742 3.79417 11.608 3.34526 11.382C2.56298 11.498 1.76394 11.4051 1.02912 11.1127C0.608959 10.9443 0.239577 11.4464 0.525952 11.7969C0.960073 12.3262 1.4796 12.7791 2.06305 13.137C3.57366 14.0704 5.44706 14.2437 7.10012 13.6828C7.54339 13.0917 7.83335 12.4 7.94411 11.6695C6.92101 12.0204 5.82277 12.0918 4.76286 11.8763V11.8763ZM4.33061 7.94416C3.97962 6.92105 3.90823 5.82276 4.12382 4.76283C4.22592 4.27076 4.39204 3.79419 4.61796 3.34529C4.50213 2.56297 4.59502 1.76394 4.88724 1.02906C5.0557 0.609021 4.55351 0.239454 4.20305 0.525769C3.67381 0.95986 3.22091 1.47942 2.86309 2.06294C1.92975 3.57362 1.75641 5.44697 2.3172 7.10004C2.90835 7.54333 3.60007 7.83333 4.33061 7.94416V7.94416ZM11.6694 8.05585C12.0204 9.07896 12.0918 10.1772 11.8762 11.2372C11.7741 11.7293 11.608 12.2058 11.3821 12.6547C11.4979 13.437 11.405 14.2361 11.1128 14.9709C10.9443 15.391 11.4465 15.7606 11.797 15.4742C12.3262 15.0401 12.7791 14.5206 13.1369 13.9371C14.0703 12.4264 14.2436 10.553 13.6828 8.89997C13.0917 8.45668 12.4 8.16668 11.6694 8.05585V8.05585ZM15.4741 4.20307C15.04 3.67382 14.5204 3.22086 13.937 2.86293C12.4264 1.92964 10.553 1.75636 8.89991 2.31715C8.45663 2.90827 8.16666 3.59999 8.05592 4.33051C9.07902 3.97958 10.1773 3.90819 11.2372 4.12373C11.7293 4.22584 12.2058 4.39199 12.6548 4.61793C13.4371 4.50198 14.2361 4.59488 14.9709 4.88722C15.3911 5.05567 15.7605 4.55354 15.4741 4.20307Z" fill="#213F7D"/>
<path d="M15.8305 8.56574C15.3056 6.34369 13.4762 4.57081 11.2372 4.12372C10.1772 3.90819 9.07901 3.97958 8.05591 4.33051C8.16964 3.5738 8.47481 2.85869 8.94248 2.25302C9.41015 1.64735 10.0248 1.17121 10.7281 0.869758C11.1443 0.69178 11.0505 0.0754466 10.6002 0.0300985C9.919 -0.0371332 9.23135 0.0099635 8.56567 0.169442C6.34377 0.694344 4.57083 2.52381 4.12382 4.76282C3.90822 5.82276 3.97961 6.92104 4.3306 7.94415C3.57388 7.8304 2.85877 7.5252 2.2531 7.05753C1.64743 6.58985 1.17128 5.97519 0.869814 5.27185C0.691836 4.85578 0.0755071 4.94947 0.0300987 5.39979C-0.0371418 6.08098 0.00997536 6.76862 0.169502 7.43427C0.6944 9.65631 2.52385 11.4292 4.76285 11.8763C5.82277 12.0918 6.92101 12.0204 7.9441 11.6695C7.83037 12.4262 7.5252 13.1413 7.05753 13.747C6.58986 14.3527 5.97521 14.8288 5.27188 15.1302C4.85574 15.3082 4.94949 15.9246 5.39981 15.9699C6.08101 16.0371 6.76866 15.99 7.43434 15.8306C9.65625 15.3057 11.4292 13.4762 11.8762 11.2372C12.0918 10.1772 12.0204 9.07896 11.6694 8.05585C12.4261 8.16961 13.1412 8.4748 13.7469 8.94248C14.3526 9.41016 14.8287 10.0248 15.1302 10.7281C15.3082 11.1442 15.9245 11.0505 15.9699 10.6002C16.0372 9.91903 15.99 9.23139 15.8305 8.56574V8.56574ZM8.00001 9.5C7.70333 9.5 7.41332 9.41203 7.16665 9.24721C6.91997 9.08239 6.72771 8.84812 6.61418 8.57403C6.50065 8.29995 6.47094 7.99835 6.52882 7.70737C6.58669 7.4164 6.72955 7.14913 6.93933 6.93935C7.14911 6.72957 7.41638 6.5867 7.70736 6.52883C7.99833 6.47095 8.29993 6.50065 8.57402 6.61418C8.84811 6.72771 9.08238 6.91997 9.2472 7.16665C9.41202 7.41332 9.5 7.70333 9.5 8C9.49999 8.39782 9.34195 8.77935 9.06065 9.06065C8.77935 9.34195 8.39783 9.49999 8.00001 9.5Z" fill="#213F7D"/>
</g>
<defs>
<clipPath id="clip0_18_739">
<rect width="16" height="16" fill="white"/>
</clipPath>
</defs>
</svg>
