<svg width="16" height="16" viewBox="0 0 16 16" fill="none" xmlns="http://www.w3.org/2000/svg">
<path d="M9.77404 6.66958L9.77965 6.66577L9.75985 6.59627C9.71628 6.44333 9.56403 6.32762 9.39893 6.34768C9.36769 6.34936 9.29243 6.35927 9.19014 6.38425C9.074 6.41262 8.91758 6.4617 8.74078 6.5449C8.40545 6.7027 7.99711 6.98317 7.65263 7.47625C7.38764 7.30785 6.97328 7.15787 6.42656 7.29393C6.29058 7.31879 6.17486 7.43287 6.17122 7.59219C6.08095 8.23014 6.30842 8.84741 6.61302 9.35902C6.9133 9.86338 7.2949 10.2758 7.54663 10.5209C7.56252 10.5582 7.58046 10.594 7.59546 10.6239L7.59572 10.6244C7.611 10.6549 7.62174 10.6766 7.62824 10.6922C7.63643 10.8631 7.64825 11.0075 7.6601 11.1146C7.6662 11.1697 7.67239 11.2157 7.67824 11.2506C7.68115 11.268 7.68414 11.2836 7.68718 11.2966C7.68868 11.3031 7.6909 11.3122 7.69415 11.3218C7.72457 11.4852 7.88323 11.5874 8.03114 11.5874H8.07926V11.5882L8.09184 11.5866C8.2732 11.5636 8.4134 11.385 8.36926 11.1959L8.36856 11.1914L8.3649 11.1666C8.36177 11.1447 8.35739 11.1121 8.3525 11.0699C8.34364 10.9937 8.3331 10.8866 8.32525 10.7559C8.56208 10.4972 9.20009 9.75682 9.52869 9.1003L9.5287 9.10031L9.52941 9.09883C9.81886 8.49604 9.87593 7.8828 9.86164 7.4168C9.85448 7.18344 9.8294 6.98594 9.8061 6.84366C9.79445 6.77248 9.78324 6.71516 9.77501 6.67436L9.77404 6.66958ZM6.98183 8.07858C6.92088 8.12217 6.88061 8.17847 6.85875 8.23969C6.8369 8.13851 6.82343 8.03686 6.82012 7.93543C6.98557 7.93504 7.11763 7.97422 7.2192 8.02466C7.14074 8.01591 7.05967 8.03346 6.99034 8.07313L6.99008 8.07268L6.98183 8.07858ZM8.89407 8.78798C8.75732 9.05723 8.55612 9.3521 8.35426 9.61323C8.44355 9.07763 8.62867 8.48307 9.00881 7.96331L9.00882 7.96332L9.00944 7.96245C9.11806 7.81055 9.09969 7.6022 8.93814 7.48668C8.82305 7.40439 8.67557 7.39499 8.56059 7.46552C8.76997 7.28696 8.97678 7.18321 9.13932 7.12279C9.20053 7.49403 9.20814 8.15933 8.90239 8.77133L8.89407 8.78798ZM8.00878 8.17271C8.14761 7.90648 8.30804 7.70283 8.47053 7.54701C8.468 7.55028 8.46552 7.55361 8.46307 7.55701C8.17362 7.94345 7.97562 8.36364 7.8414 8.77625C7.86208 8.57287 7.9147 8.36898 8.00878 8.17271Z" fill="#213F7D" stroke="#213F7D" stroke-width="0.2"/>
<path d="M4.46 11.84C4.46 12.0234 4.61664 12.18 4.8 12.18C4.98335 12.18 5.14 12.0234 5.14 11.84V5.76C5.14 5.57665 4.98335 5.42 4.8 5.42C4.61664 5.42 4.46 5.57665 4.46 5.76V11.84Z" fill="#213F7D" stroke="#213F7D" stroke-width="0.2"/>
<path d="M2.85999 11.84C2.85999 12.0234 3.01664 12.18 3.19999 12.18C3.38334 12.18 3.53999 12.0234 3.53999 11.84V5.76C3.53999 5.57665 3.38334 5.42 3.19999 5.42C3.01664 5.42 2.85999 5.57665 2.85999 5.76V11.84Z" fill="#213F7D" stroke="#213F7D" stroke-width="0.2"/>
<path d="M10.86 11.84C10.86 12.0234 11.0166 12.18 11.2 12.18C11.3833 12.18 11.54 12.0234 11.54 11.84V5.76C11.54 5.57665 11.3833 5.42 11.2 5.42C11.0166 5.42 10.86 5.57665 10.86 5.76V11.84Z" fill="#213F7D" stroke="#213F7D" stroke-width="0.2"/>
<path d="M12.46 11.84C12.46 12.0234 12.6166 12.18 12.8 12.18C12.9834 12.18 13.14 12.0234 13.14 11.84V5.76C13.14 5.57665 12.9834 5.42 12.8 5.42C12.6166 5.42 12.46 5.57665 12.46 5.76V11.84Z" fill="#213F7D" stroke="#213F7D" stroke-width="0.2"/>
<path d="M13.36 5.3H13.5821L13.5367 5.24873C13.6336 5.18874 13.7013 5.08323 13.7148 4.97134L13.7156 4.97143V4.9593C13.7156 4.8291 13.6337 4.69699 13.517 4.64605L8.18349 1.46845C8.08116 1.39472 7.94245 1.40256 7.83671 1.46611C7.83667 1.46613 7.83663 1.46616 7.83659 1.46618L2.47688 4.66601L2.47681 4.6659L2.47267 4.66866C2.35045 4.75014 2.2755 4.88566 2.31859 5.04572C2.34564 5.1924 2.48645 5.3 2.64001 5.3H13.36ZM12.119 4.62H3.86583L7.99991 2.1484L12.119 4.62Z" fill="#213F7D" stroke="#213F7D" stroke-width="0.2"/>
<path d="M2.63999 12.98H13.36C13.5433 12.98 13.7 12.8233 13.7 12.64C13.7 12.4566 13.5433 12.3 13.36 12.3H2.63999C2.45664 12.3 2.29999 12.4566 2.29999 12.64C2.29999 12.8233 2.45664 12.98 2.63999 12.98Z" fill="#213F7D" stroke="#213F7D" stroke-width="0.2"/>
<path d="M1.83998 13.78H14.16C14.3433 13.78 14.5 13.6234 14.5 13.44C14.5 13.2566 14.3433 13.1 14.16 13.1H1.83998C1.65662 13.1 1.49998 13.2566 1.49998 13.44C1.49998 13.6234 1.65662 13.78 1.83998 13.78Z" fill="#213F7D" stroke="#213F7D" stroke-width="0.2"/>
<path d="M1.03999 14.58H14.96C15.1433 14.58 15.3 14.4234 15.3 14.24C15.3 14.0566 15.1433 13.9 14.96 13.9H1.03999C0.856635 13.9 0.699988 14.0566 0.699988 14.24C0.699988 14.4234 0.856635 14.58 1.03999 14.58Z" fill="#213F7D" stroke="#213F7D" stroke-width="0.2"/>
</svg>
