<svg width="16" height="13" viewBox="0 0 16 13" fill="none" xmlns="http://www.w3.org/2000/svg">
<g clip-path="url(#clip0_18_748)">
<path opacity="0.4" d="M15.9075 9.705L15.2625 9.3325C15.3275 8.98048 15.3275 8.61953 15.2625 8.2675L15.9075 7.895C15.9435 7.87441 15.9714 7.84206 15.9864 7.80337C16.0014 7.76469 16.0027 7.72201 15.99 7.6825C15.8238 7.14827 15.5402 6.65796 15.16 6.2475C15.132 6.21699 15.0945 6.1969 15.0536 6.19054C15.0127 6.18418 14.9709 6.19193 14.935 6.2125L14.29 6.585C14.0176 6.35272 13.7049 6.17225 13.3675 6.0525V5.3075C13.3675 5.26613 13.3533 5.22599 13.3274 5.19373C13.3015 5.16146 13.2654 5.13898 13.225 5.13C12.6801 5.00749 12.1149 5.00749 11.57 5.13C11.5296 5.13898 11.4935 5.16146 11.4676 5.19373C11.4417 5.22599 11.4275 5.26613 11.4275 5.3075V6.0525C11.0901 6.17225 10.7774 6.35272 10.505 6.585L9.86 6.2125C9.82407 6.19202 9.78225 6.18432 9.74138 6.19068C9.70051 6.19704 9.66301 6.21707 9.635 6.2475C9.25479 6.65796 8.97121 7.14827 8.805 7.6825C8.79291 7.72204 8.79448 7.7645 8.80944 7.80304C8.82441 7.84159 8.8519 7.87398 8.8875 7.895L9.5325 8.2675C9.4675 8.61953 9.4675 8.98048 9.5325 9.3325L8.8875 9.705C8.85147 9.7256 8.82361 9.75795 8.8086 9.79664C8.79358 9.83532 8.79231 9.87799 8.805 9.9175C8.97179 10.4515 9.2553 10.9417 9.635 11.3525C9.66296 11.383 9.70047 11.4031 9.74136 11.4095C9.78225 11.4158 9.82409 11.4081 9.86 11.3875L10.505 11.015C10.7774 11.2473 11.0901 11.4278 11.4275 11.5475V12.2925C11.4275 12.3339 11.4417 12.374 11.4676 12.4063C11.4935 12.4385 11.5296 12.461 11.57 12.47C12.1149 12.5925 12.6801 12.5925 13.225 12.47C13.2654 12.461 13.3015 12.4385 13.3274 12.4063C13.3533 12.374 13.3675 12.3339 13.3675 12.2925V11.5475C13.7049 11.4278 14.0176 11.2473 14.29 11.015L14.935 11.3875C14.9709 11.408 15.0127 11.4157 15.0536 11.4093C15.0945 11.403 15.132 11.3829 15.16 11.3525C15.5402 10.942 15.8238 10.4517 15.99 9.9175C16.0021 9.87796 16.0005 9.83551 15.9856 9.79696C15.9706 9.75842 15.9431 9.72603 15.9075 9.705V9.705ZM12.4 10.0125C12.1602 10.0125 11.9258 9.94139 11.7264 9.80816C11.527 9.67493 11.3716 9.48556 11.2798 9.26401C11.188 9.04245 11.164 8.79866 11.2108 8.56346C11.2576 8.32826 11.3731 8.11221 11.5426 7.94264C11.7122 7.77307 11.9283 7.65759 12.1635 7.6108C12.3987 7.56402 12.6424 7.58803 12.864 7.6798C13.0856 7.77157 13.2749 7.92698 13.4082 8.12638C13.5414 8.32577 13.6125 8.56019 13.6125 8.8C13.6122 9.12148 13.4843 9.42969 13.257 9.65701C13.0297 9.88432 12.7215 10.0122 12.4 10.0125V10.0125Z" fill="#213F7D"/>
<path d="M10.63 12.2924V12.0624C10.5725 12.0324 10.515 11.9974 10.46 11.9649L10.2625 12.0799C10.0697 12.1918 9.84461 12.2347 9.62421 12.2015C9.40382 12.1684 9.20129 12.0611 9.05 11.8974C8.58975 11.3994 8.24641 10.805 8.045 10.1574C7.97798 9.94453 7.98582 9.71509 8.06723 9.50726C8.14863 9.29942 8.2987 9.12569 8.4925 9.01494L8.69 8.89994C8.6875 8.83494 8.6875 8.76994 8.69 8.70494L8.4925 8.58994C8.29857 8.47933 8.14838 8.30561 8.06696 8.09773C7.98554 7.88985 7.97778 7.66034 8.045 7.44744C8.0675 7.37494 8.1 7.30244 8.125 7.22994C8.03 7.22244 7.9375 7.19994 7.84 7.19994H7.4225C6.85106 7.46346 6.22927 7.59993 5.6 7.59993C4.97073 7.59993 4.34894 7.46346 3.7775 7.19994H3.36C2.46893 7.20014 1.61442 7.5542 0.984341 8.18428C0.354262 8.81436 0.000198832 9.66887 0 10.5599L0 11.5999C0 11.9182 0.126428 12.2234 0.351472 12.4485C0.576516 12.6735 0.88174 12.7999 1.2 12.7999H10C10.243 12.7997 10.4801 12.7256 10.68 12.5874C10.6483 12.4923 10.6314 12.3928 10.63 12.2924V12.2924ZM5.6 6.39994C6.2329 6.39994 6.85159 6.21226 7.37782 5.86064C7.90406 5.50902 8.31421 5.00925 8.55641 4.42453C8.79862 3.8398 8.86199 3.19639 8.73851 2.57565C8.61504 1.95491 8.31027 1.38473 7.86274 0.937199C7.41521 0.489671 6.84503 0.1849 6.22429 0.0614275C5.60355 -0.0620452 4.96014 0.00132546 4.37541 0.243526C3.79069 0.485726 3.29092 0.895878 2.9393 1.42212C2.58768 1.94835 2.4 2.56704 2.4 3.19994C2.4 4.04863 2.73714 4.86257 3.33726 5.46268C3.93737 6.0628 4.75131 6.39994 5.6 6.39994Z" fill="#213F7D"/>
</g>
<defs>
<clipPath id="clip0_18_748">
<rect width="16" height="12.8" fill="white"/>
</clipPath>
</defs>
</svg>
